<?xml version="1.0" encoding="UTF-8"?>
<svg width="36px" height="36px" viewBox="0 0 36 36" version="1.1" xmlns="http://www.w3.org/2000/svg" xmlns:xlink="http://www.w3.org/1999/xlink">
    <!-- Generator: Sketch 44 (41411) - http://www.bohemiancoding.com/sketch -->
    <title>ALIPAY</title>
    <desc>Created with Sketch.</desc>
    <defs></defs>
    <g id="bank-logo" stroke="none" stroke-width="1" fill="none" fill-rule="evenodd">
        <g id="ALIPAY" fill-rule="nonzero" fill="#00AEF1">
            <g id="Group-4">
                <path d="M9.83914696,27.6328007 C13.1041389,27.6328007 16.3691308,25.5236233 18.9273826,22.1886935 C15.2832541,20.4144815 12.2479927,19.5163326 8.85633654,19.5163326 C7.49193557,19.5163326 6.32753222,19.9739959 5.36312649,20.8893225 C2.5656137,23.2708893 4.21099294,27.6328007 9.83914696,27.6328007 Z" id="Shape"></path>
                <path d="M30.397185,0.0147237515 L5.88213873,0.0147237515 C2.69076559,0.0147237515 0,2.49199495 0,5.67600621 L0,30.1211147 C0,33.3051259 2.69076559,35.9885297 5.88213873,35.9885297 L30.400866,35.9885297 C33.5922391,35.9885297 36.0768722,33.3051259 36.0768722,30.1211147 L36.0768722,29.926025 C36.0768722,29.926025 26.7456946,25.9726977 22.0156895,23.6941971 C18.8390401,27.5481391 14.7495181,29.86713 10.5053967,29.86713 C6.34225597,29.86713 3.28707753,27.437711 2.94106937,24.8720973 C2.94106937,24.8905019 2.94106937,24.9125876 2.94106937,24.9309923 C2.94106937,24.9309923 2.00979208,22.2512695 4.27356888,19.5494611 C5.02448021,18.6549932 6.27968002,17.7862918 8.24530085,17.304089 C11.315203,16.5494967 16.1998076,17.7715681 20.7825753,19.2807526 C21.6034244,17.7678872 22.2402267,16.1004223 22.755558,14.3262102 L8.5802662,14.3262102 L8.5802662,13.0415629 L15.6071766,13.0415629 L15.6071766,10.4538636 L7.02691041,10.4538636 L7.02691041,9.00725499 L15.6071766,9.00725499 L15.6071766,5.27110305 C15.6071766,5.27110305 15.6771144,4.77049549 16.2991929,4.77049549 L19.7408699,4.77049549 L19.7408699,9.00725499 L28.7334011,9.00725499 L28.7334011,10.4538636 L19.7408699,10.4538636 L19.7408699,13.037882 L27.2683878,13.037882 C26.5874143,15.8280329 25.5493898,18.308985 24.2463378,20.5506762 C26.4070484,21.331035 28.3505836,22.0267323 29.7935112,22.5089351 C34.9946764,24.2426569 36.0731912,24.3162756 36.0731912,24.3162756 L36.0731912,24.3125947 L36.0731912,5.67600621 C36.0731912,2.49199495 33.5885582,0.0147237515 30.397185,0.0147237515 Z" id="Shape"></path>
            </g>
        </g>
    </g>
</svg>