<?xml version="1.0" encoding="UTF-8"?>
<svg width="36px" height="36px" viewBox="0 0 36 36" version="1.1" xmlns="http://www.w3.org/2000/svg" xmlns:xlink="http://www.w3.org/1999/xlink">
    <!-- Generator: Sketch 44 (41411) - http://www.bohemiancoding.com/sketch -->
    <title>WEIXINZHIFU</title>
    <desc>Created with Sketch.</desc>
    <defs></defs>
    <g id="bank-logo" stroke="none" stroke-width="1" fill="none" fill-rule="evenodd">
        <g id="WEIXINZHIFU" fill-rule="nonzero" fill="#00C000">
            <path d="M34.0163265,9.9677551 C33.8326531,10.0779592 18.7420408,19.0779592 13.7461224,21.6420408 C12.8644898,22.0938776 12.4236735,21.9065306 12.2987755,21.9065306 C11.464898,21.9065306 7.75836735,13.9608163 8.74285714,13.3546939 C9.72734694,12.7485714 12.2253061,16.3081633 13.6616327,16.4587755 C14.8518367,16.5836735 27.9404082,10.1367347 32.4367347,7.90326531 C29.1563265,4.32163265 23.9106122,2 18,2 C8.05959184,2 0,8.55714286 0,16.6461224 C0,20.9036735 2.23346939,24.735102 5.80040816,27.4130612 C6.28530612,27.9897959 6.67836735,28.5591837 6.66367347,28.8714286 C6.62693878,29.664898 5.40734694,33.084898 6.02081633,33.2244898 C7.53428571,33.5661224 10.1828571,30.9542857 11.1673469,31.0314286 C11.7367347,31.0755102 13.0408163,31.0057143 14.0363265,30.9395918 C15.3110204,31.1746939 16.6371429,31.2995918 18,31.2995918 C27.9404082,31.2995918 36,24.742449 36,16.6534694 C36,14.24 35.2836735,11.9697959 34.0163265,9.9677551 Z" id="Shape"></path>
        </g>
    </g>
</svg>