<?xml version="1.0" encoding="UTF-8"?>
<svg width="112px" height="200px" viewBox="0 0 112 200" version="1.1" xmlns="http://www.w3.org/2000/svg" xmlns:xlink="http://www.w3.org/1999/xlink">
    <!-- Generator: Sketch 43.2 (39069) - http://www.bohemiancoding.com/sketch -->
    <title>Shape</title>
    <desc>Created with Sketch.</desc>
    <defs></defs>
    <g id="checkout" stroke="none" stroke-width="1" fill="none" fill-rule="evenodd">
        <g id="Checkout-国内支付选择微信支付" transform="translate(-450.000000, -380.000000)" fill="#D8D8D8">
            <path d="M556.666667,380 L454.444444,380 C452,380 450,382 450,384.444444 L450,575.555556 C450,578 452,580 454.444444,580 L556.666667,580 C559.111111,580 561.111111,578 561.111111,575.555556 L561.111111,384.444444 C561.111111,382 559.111111,380 556.666667,380 Z M505.555556,571.111111 L505.555556,571.111111 C501.777778,571.111111 498.888889,568.222222 498.888889,564.444444 L498.888889,564.444444 C498.888889,560.666667 501.777778,557.777778 505.555556,557.777778 L505.555556,557.777778 C509.333333,557.777778 512.222222,560.666667 512.222222,564.444444 L512.222222,564.444444 C512.222222,568.222222 509.333333,571.111111 505.555556,571.111111 Z M550,548.888889 L461.111111,548.888889 C459.777778,548.888889 458.888889,548 458.888889,546.666667 L458.888889,391.111111 C458.888889,389.777778 459.777778,388.888889 461.111111,388.888889 L550,388.888889 C551.333333,388.888889 552.222222,389.777778 552.222222,391.111111 L552.222222,546.666667 C552.222222,548 551.333333,548.888889 550,548.888889 Z" id="Shape"></path>
        </g>
    </g>
</svg>