<?xml version="1.0" encoding="UTF-8"?>
<svg width="80px" height="60px" viewBox="0 0 80 60" version="1.1" xmlns="http://www.w3.org/2000/svg" xmlns:xlink="http://www.w3.org/1999/xlink">
    <!-- Generator: Sketch 40.3 (33839) - http://www.bohemiancoding.com/sketch -->
    <title>icon-truck</title>
    <desc>Created with Sketch.</desc>
    <defs></defs>
    <g id="1.4-ICON规范" stroke="none" stroke-width="1" fill="none" fill-rule="evenodd">
        <g transform="translate(-897.000000, -386.000000)" id="Group-8" stroke="#707473">
            <g transform="translate(904.000000, 396.000000)">
                <path d="M57.7272727,34.5454545 L64.8233294,34.5454545 C65.9204708,34.5454545 66.8022996,33.6470455 66.7827079,32.5388017 L66.5946253,21.8995474 C66.574965,20.7874209 66.1393476,19.1013033 65.6214933,18.1248261 L60.8039682,9.04079579 C60.2849774,8.06217526 58.9726852,7.27272727 57.8703429,7.27272727 L45.1777854,7.27272727 C44.0788489,7.27272727 43.1818182,8.17058831 43.1818182,9.27815603 L43.1818182,32.5400258 C43.1818182,33.6535477 44.074944,34.5454545 45.1766706,34.5454545 L46.8181818,34.5454545 C46.8181818,31.5329923 49.260265,29.0909091 52.2727273,29.0909091 C55.2851895,29.0909091 57.7272727,31.5329923 57.7272727,34.5454545 Z" id="Combined-Shape"></path>
                <path d="M34.0909091,34.5454545 L38.4572538,34.5454545 C39.5630056,34.5454545 40.4545455,33.6470568 40.4545455,32.5388269 L40.4545455,2.00662762 C40.4545455,0.88865272 39.5603275,0 38.4572538,0 L2.45183708,0 C1.34608528,0 0.454545455,0.898397787 0.454545455,2.00662762 L0.454545455,32.5388269 C0.454545455,33.6568018 1.34876337,34.5454545 2.45183708,34.5454545 L23.1818182,34.5454545 C23.1818182,31.5329923 25.6239014,29.0909091 28.6363636,29.0909091 C31.6488259,29.0909091 34.0909091,31.5329923 34.0909091,34.5454545 Z" id="Combined-Shape" transform="translate(20.454545, 17.272727) scale(-1, 1) translate(-20.454545, -17.272727) "></path>
                <ellipse id="Oval-Copy" transform="translate(12.272727, 34.545455) scale(-1, 1) translate(-12.272727, -34.545455) " cx="12.2727273" cy="34.5454545" rx="5.45454545" ry="5.45454545"></ellipse>
                <ellipse id="Oval-Copy" transform="translate(12.272727, 34.545455) scale(-1, 1) translate(-12.272727, -34.545455) " cx="12.2727273" cy="34.5454545" rx="3.63636364" ry="3.63636364"></ellipse>
                <ellipse id="Oval-Copy-5" transform="translate(52.272727, 34.545455) scale(-1, 1) translate(-52.272727, -34.545455) " cx="52.2727273" cy="34.5454545" rx="3.63636364" ry="3.63636364"></ellipse>
                <ellipse id="Oval-Copy-4" transform="translate(52.272727, 34.545455) scale(-1, 1) translate(-52.272727, -34.545455) " cx="52.2727273" cy="34.5454545" rx="5.45454545" ry="5.45454545"></ellipse>
                <polyline id="Path-4" points="62.0450456 11.9325088 51.7319336 11.9325088 51.7319336 22.5596765 66.2426222 22.5596765"></polyline>
            </g>
        </g>
    </g>
</svg>